<?xml version="1.0" standalone="no"?>
<!DOCTYPE svg PUBLIC "-//W3C//DTD SVG 20010904//EN"
 "http://www.w3.org/TR/2001/REC-SVG-20010904/DTD/svg10.dtd">
<svg version="1.0" xmlns="http://www.w3.org/2000/svg"
 width="300.000000pt" height="300.000000pt" viewBox="0 0 300.000000 300.000000"
 preserveAspectRatio="xMidYMid meet">
<metadata>
Created by potrace 1.10, written by Peter Selinger 2001-2011
</metadata>
<g transform="translate(0.000000,300.000000) scale(0.100000,-0.100000)"
fill="#000000" stroke="none">
<path d="M1435 2733 c-29 -8 -67 -35 -95 -67 -40 -46 -90 -144 -90 -176 0 -41
-40 -119 -64 -126 -12 -4 -33 -7 -48 -6 -21 0 -28 -4 -28 -19 0 -16 7 -19 48
-20 26 0 59 -2 75 -3 27 -2 27 -1 27 56 0 57 14 79 23 36 2 -13 5 12 6 55 1
70 3 77 21 77 17 0 20 7 20 40 0 33 3 40 20 40 13 0 20 7 20 20 0 13 7 20 20
20 12 0 20 7 20 18 0 15 12 17 115 17 103 0 115 -2 115 -17 0 -11 8 -18 20
-18 13 0 20 -7 20 -20 0 -14 7 -20 21 -20 20 0 21 -4 15 -41 -6 -38 -5 -40 16
-37 22 3 23 0 20 -54 -4 -53 -2 -58 17 -58 18 0 21 -6 21 -41 0 -36 2 -41 20
-36 16 4 20 0 20 -20 0 -19 4 -24 16 -19 9 3 33 6 55 6 33 0 39 3 39 21 0 15
5 20 23 17 25 -3 32 -43 7 -43 -8 0 -17 -9 -20 -20 -4 -11 -14 -20 -25 -20
-13 0 -19 -6 -19 -17 1 -13 -6 -18 -23 -18 -18 0 -24 -5 -21 -17 2 -13 14 -19
41 -21 32 -3 37 0 37 17 0 14 6 21 20 21 13 0 20 7 20 20 0 17 7 20 40 20 34
0 40 3 40 20 0 14 6 20 18 18 12 -2 16 3 14 17 -2 18 3 21 38 22 l40 2 0 -84
c0 -78 -1 -83 -20 -78 -18 5 -20 0 -20 -51 0 -49 2 -56 20 -56 18 0 20 -7 20
-60 0 -53 -2 -60 -20 -60 -19 0 -20 -7 -20 -265 0 -264 0 -265 -21 -265 -19 0
-21 -4 -16 -40 4 -35 2 -40 -14 -40 -16 0 -19 -7 -19 -41 0 -36 -2 -41 -20
-36 -17 4 -20 0 -20 -34 0 -32 -3 -39 -20 -39 -13 0 -20 -7 -20 -20 0 -17 -7
-20 -40 -20 -33 0 -40 -3 -38 -17 2 -15 -4 -18 -34 -17 -34 1 -38 -1 -38 -22
0 -23 -3 -24 -41 -18 -39 7 -41 6 -37 -17 3 -22 0 -23 -34 -21 l-38 4 0 -41 0
-41 -155 0 c-148 0 -155 1 -155 20 0 13 -7 20 -20 20 -14 0 -20 6 -18 18 2 11
-4 17 -17 17 -13 0 -20 7 -20 20 0 17 -7 20 -38 18 -33 -2 -37 0 -37 21 0 22
-3 24 -40 19 -36 -5 -40 -3 -40 16 0 18 -6 21 -40 21 l-41 0 4 37 c3 29 9 38
23 38 15 0 19 8 19 38 0 29 4 37 18 37 10 0 17 8 17 20 0 13 7 20 20 20 17 0
20 7 20 40 l0 40 74 0 c65 0 74 2 79 20 4 16 11 18 41 13 33 -5 36 -4 36 20 0
20 4 24 20 20 19 -5 20 0 20 111 0 109 -1 116 -20 116 -13 0 -20 7 -20 20 0
13 7 20 20 20 17 0 20 7 20 40 0 33 3 40 20 40 13 0 20 7 20 20 0 14 6 20 18
18 11 -2 17 3 16 15 -1 10 5 17 17 17 15 0 19 7 19 40 0 33 3 40 20 40 13 0
20 7 20 20 0 18 7 20 79 20 74 0 79 1 74 20 -4 15 0 20 16 20 14 0 21 6 21 20
0 13 7 20 20 20 11 0 20 7 20 15 0 8 9 15 20 15 13 0 20 7 20 20 0 17 -7 20
-40 20 -33 0 -40 -3 -40 -20 0 -13 -7 -20 -20 -20 -14 0 -20 -6 -18 -17 2 -12
-4 -18 -17 -18 -13 0 -19 -6 -17 -17 3 -16 -7 -18 -78 -18 -49 0 -80 4 -80 10
0 6 7 10 16 8 10 -2 19 3 21 10 4 9 -15 12 -71 12 -69 0 -76 -2 -76 -20 0 -18
-7 -20 -60 -20 -53 0 -60 2 -60 20 0 16 -7 20 -35 20 -24 0 -35 5 -35 15 0 8
-9 15 -20 15 -13 0 -20 -7 -20 -19 0 -14 5 -18 20 -14 15 4 20 0 20 -16 0 -15
6 -21 21 -21 16 0 19 -4 14 -20 -6 -19 -2 -20 129 -20 129 0 136 -1 136 -20 0
-11 -7 -20 -15 -20 -8 0 -15 -9 -15 -20 0 -13 -7 -20 -20 -20 -13 0 -20 -7
-20 -20 0 -13 -7 -20 -20 -20 -16 0 -20 -7 -20 -35 0 -28 -4 -35 -20 -35 -13
0 -20 -7 -20 -20 0 -13 -7 -20 -20 -20 -13 0 -20 -7 -20 -20 0 -14 -7 -20 -21
-20 -16 0 -20 -5 -16 -20 5 -19 0 -20 -113 -20 -115 0 -118 -1 -113 -21 5 -18
3 -20 -16 -14 -21 6 -21 4 -21 -94 0 -95 1 -101 20 -101 14 0 20 -6 18 -17 -2
-12 3 -18 15 -17 13 1 17 -6 17 -37 0 -32 -4 -39 -19 -39 -14 0 -18 -5 -14
-20 4 -15 0 -20 -16 -20 -18 0 -21 -6 -21 -40 0 -40 0 -40 -40 -40 -36 0 -40
3 -40 24 0 19 -4 23 -20 19 -18 -5 -20 0 -20 57 0 57 -1 61 -20 55 -20 -6 -20
-2 -20 244 0 244 -1 251 -20 251 -19 0 -20 7 -20 216 l0 215 23 -3 c14 -2 22
-10 22 -23 0 -17 6 -19 38 -17 33 3 37 1 37 -20 0 -21 4 -23 40 -20 35 4 40 2
40 -17 0 -15 6 -21 21 -21 16 0 20 -5 16 -20 -4 -15 0 -20 14 -20 12 0 19 -7
19 -20 0 -17 7 -20 40 -20 33 0 40 3 40 20 0 13 -7 20 -20 20 -13 0 -20 7 -20
20 0 13 -7 20 -20 20 -14 0 -20 7 -20 21 0 15 -4 19 -16 15 -10 -4 -18 0 -21
13 -3 11 -13 21 -24 24 -29 8 -25 47 5 47 30 0 42 15 20 24 -23 9 -23 9 -54
-25 l-28 -31 -58 31 c-69 37 -87 38 -111 7 -16 -20 -19 -46 -22 -208 -2 -172
-1 -189 18 -226 19 -38 21 -58 21 -259 0 -196 2 -222 20 -262 11 -24 20 -49
20 -56 0 -6 13 -32 30 -56 16 -24 30 -54 30 -65 0 -24 56 -84 77 -84 7 0 13
-4 13 -10 0 -5 9 -10 21 -10 11 0 32 -9 46 -20 14 -11 33 -20 43 -20 9 0 27
-9 40 -20 13 -11 29 -20 37 -20 8 0 40 -24 71 -54 66 -62 96 -72 205 -65 12 1
31 -1 42 -3 36 -9 119 24 133 54 11 24 43 44 122 78 14 6 50 24 80 40 30 17
59 30 65 30 20 0 64 46 88 90 13 25 28 54 34 65 6 11 27 53 47 92 l36 73 0
232 c0 215 2 236 20 266 25 41 28 139 5 148 -19 8 -19 51 0 84 22 39 20 161
-4 188 -25 30 -73 28 -119 -3 -45 -31 -50 -31 -79 -3 -21 20 -27 21 -56 10
-64 -23 -80 -17 -112 41 -15 28 -30 69 -32 89 -6 51 -53 134 -102 183 -23 21
-41 35 -41 30 0 -6 -4 -4 -8 2 -9 14 -172 26 -207 16z m-39 -1020 c15 -21 18
-120 5 -156 -12 -32 -101 -74 -169 -79 -51 -5 -54 -3 -87 34 -32 34 -35 44
-35 97 0 80 16 91 125 91 50 1 89 6 105 15 33 19 40 18 56 -2z m-366 -479 c0
-12 5 -26 10 -29 6 -3 10 -13 10 -21 0 -8 -4 -14 -10 -14 -5 0 -10 10 -10 21
0 16 -5 20 -20 16 -17 -4 -20 0 -20 28 0 28 3 32 20 28 13 -3 20 -14 20 -29z"/>
<path d="M1370 2499 l0 -41 40 7 c36 6 40 5 40 -14 0 -14 -6 -21 -20 -21 -18
0 -20 -7 -20 -59 0 -54 2 -59 20 -54 15 4 20 0 20 -16 0 -14 6 -21 20 -21 17
0 20 -7 20 -40 0 -39 1 -40 35 -40 34 0 35 1 35 40 0 33 3 40 20 40 14 0 20 7
20 21 0 16 4 19 20 14 18 -6 20 -2 20 54 0 54 -2 61 -20 61 -13 0 -20 7 -20
20 0 18 -7 20 -75 20 -60 0 -75 3 -75 15 0 8 -9 15 -20 15 -13 0 -20 7 -20 20
0 13 -7 20 -20 20 -17 0 -20 -7 -20 -41z m160 -99 c0 -20 5 -30 15 -30 8 0 15
9 15 20 0 11 -4 20 -10 20 -5 0 -10 5 -10 10 0 6 14 10 30 10 28 0 30 -2 30
-39 l0 -38 -75 -1 -75 -1 0 39 c0 40 0 40 40 40 38 0 40 -2 40 -30z m30 -99
c0 -19 -23 -35 -34 -24 -14 15 -5 43 14 43 13 0 20 -7 20 -19z"/>
<path d="M1634 2495 c-8 -20 4 -35 27 -35 14 0 19 7 19 25 0 18 -5 25 -20 25
-11 0 -23 -7 -26 -15z"/>
<path d="M1638 2240 c-3 -36 -1 -40 19 -40 19 0 22 5 21 40 0 31 -4 40 -18 40
-14 0 -19 -10 -22 -40z"/>
<path d="M950 2084 c0 -151 1 -156 20 -151 17 4 20 0 20 -34 0 -32 3 -39 20
-39 13 0 20 7 20 20 0 18 5 20 38 18 31 -3 37 0 37 17 0 13 6 19 18 17 11 -2
17 4 17 18 0 18 6 20 60 20 54 0 60 2 60 21 0 16 -5 20 -20 16 -16 -4 -20 0
-20 19 0 17 -6 24 -20 24 -13 0 -20 7 -20 20 0 13 -7 20 -20 20 -13 0 -20 7
-20 20 0 14 -6 20 -17 18 -12 -2 -17 3 -15 15 2 12 -4 17 -23 17 -22 0 -25 3
-20 20 6 18 2 20 -34 20 -34 0 -41 3 -41 20 0 13 -7 20 -20 20 -19 0 -20 -7
-20 -156z m112 39 c18 -15 50 -45 70 -67 l36 -40 -34 -21 c-19 -12 -31 -24
-27 -29 4 -4 4 -6 -2 -5 -5 2 -23 -5 -38 -15 -28 -19 -29 -19 -50 3 -17 17
-22 36 -25 96 -6 113 8 129 70 78z"/>
<path d="M1370 2220 c0 -13 7 -20 20 -20 13 0 20 7 20 20 0 13 -7 20 -20 20
-13 0 -20 -7 -20 -20z"/>
<path d="M2060 2220 c0 -17 -7 -20 -40 -20 -33 0 -40 -3 -40 -20 0 -13 -7 -20
-20 -20 -14 0 -20 -6 -18 -17 2 -14 -3 -17 -21 -15 -20 3 -23 0 -18 -17 4 -17
1 -21 -20 -21 -20 0 -23 -4 -18 -20 5 -16 2 -20 -14 -20 -15 0 -21 -6 -21 -24
0 -19 -4 -23 -20 -19 -15 4 -20 0 -20 -16 0 -18 6 -21 40 -21 33 0 40 -3 38
-17 -2 -15 4 -18 35 -18 32 0 37 -3 37 -23 0 -19 4 -22 20 -17 16 5 20 2 20
-14 0 -18 6 -21 41 -21 l41 0 -4 55 c-2 46 0 55 14 55 15 0 17 16 20 135 3
123 1 135 -14 135 -11 0 -18 -8 -18 -20z m-10 -143 c0 -49 -5 -80 -15 -93 -8
-10 -15 -27 -15 -36 0 -29 -20 -31 -53 -5 -18 13 -42 27 -55 31 -12 4 -26 15
-31 25 -8 14 3 30 60 84 39 37 79 67 90 67 17 0 19 -8 19 -73z"/>
<path d="M2090 1800 c0 -11 7 -20 15 -20 8 0 15 9 15 20 0 11 -7 20 -15 20 -8
0 -15 -9 -15 -20z"/>
<path d="M1713 1630 c0 -36 2 -40 24 -40 20 0 23 -4 18 -20 -6 -18 -2 -20 34
-20 l41 0 0 60 0 60 -59 0 -58 0 0 -40z"/>
<path d="M1450 1343 c0 -22 4 -23 75 -23 67 0 75 2 75 19 0 17 -9 20 -75 23
-72 3 -75 2 -75 -19z"/>
<path d="M680 1262 c-18 -14 -21 -25 -16 -45 8 -33 66 -48 105 -26 33 19 35
31 11 62 -26 32 -67 36 -100 9z m90 -32 c0 -17 -7 -20 -45 -20 -38 0 -45 3
-45 20 0 17 7 20 45 20 38 0 45 -3 45 -20z"/>
<path d="M2263 1265 c-18 -8 -33 -21 -33 -30 0 -12 -4 -14 -19 -5 -31 16 -86
12 -103 -7 -9 -10 -18 -31 -20 -48 -3 -16 -3 -24 -1 -17 7 21 43 14 43 -8 0
-14 -7 -20 -22 -20 -21 0 -20 -2 7 -18 17 -11 36 -26 44 -35 7 -10 21 -17 31
-17 22 0 51 33 50 56 -3 102 0 136 13 131 7 -2 11 -18 9 -36 -1 -17 2 -32 8
-32 5 -1 20 -2 31 -3 12 0 26 -10 31 -21 7 -16 7 -15 3 6 -3 17 1 31 10 39 21
17 19 36 -7 60 -25 23 -32 24 -75 5z m57 -35 c0 -13 -7 -20 -20 -20 -13 0 -20
7 -20 20 0 13 7 20 20 20 13 0 20 -7 20 -20z m-110 -40 c0 -17 -7 -20 -40 -20
-33 0 -40 3 -40 20 0 17 7 20 40 20 33 0 40 -3 40 -20z m0 -75 c0 -18 -5 -25
-20 -25 -15 0 -20 7 -20 25 0 18 5 25 20 25 15 0 20 -7 20 -25z"/>
<path d="M1490 1230 c0 -13 -7 -20 -20 -20 -13 0 -20 -7 -20 -20 0 -13 7 -20
20 -20 13 0 20 7 20 20 0 13 7 20 20 20 13 0 20 7 20 20 0 13 -7 20 -20 20
-13 0 -20 -7 -20 -20z"/>
<path d="M817 1222 c-23 -26 -21 -45 8 -72 14 -13 25 -20 25 -16 0 4 16 -1 36
-13 46 -27 68 -27 87 2 13 21 13 27 1 53 -28 58 -122 85 -157 46z m93 -32 c0
-13 7 -20 20 -20 13 0 20 -7 20 -20 0 -13 -7 -20 -20 -20 -13 0 -20 7 -20 20
0 17 -7 20 -40 20 -33 0 -40 3 -40 20 0 17 7 20 40 20 33 0 40 -3 40 -20z"/>
<path d="M1560 1190 c0 -13 7 -20 20 -20 13 0 20 7 20 20 0 13 -7 20 -20 20
-13 0 -20 -7 -20 -20z"/>
<path d="M875 1045 c-35 -18 -75 -63 -75 -85 1 -8 8 -24 18 -36 19 -23 137
-104 215 -147 49 -28 52 -28 85 -13 18 9 31 12 28 8 -7 -11 36 -53 57 -56 21
-3 47 -26 47 -41 0 -21 -49 -47 -76 -41 -24 6 -38 -4 -82 -58 -10 -12 -32 -16
-100 -16 -94 0 -126 -12 -141 -54 -11 -30 6 -71 34 -84 19 -9 25 -19 25 -42 0
-20 10 -41 29 -60 28 -30 49 -41 35 -18 -5 7 -3 8 5 3 8 -4 43 22 97 75 72 71
87 81 109 76 20 -5 32 0 55 22 27 27 31 28 50 15 20 -14 24 -14 48 4 15 11 29
29 31 39 2 10 7 29 12 42 8 21 11 22 24 8 8 -8 15 -19 15 -24 0 -5 9 -17 20
-27 17 -15 24 -16 45 -7 14 6 25 15 25 20 0 19 29 7 34 -13 6 -23 42 -40 52
-24 3 5 -4 9 -15 9 -12 0 -21 7 -21 15 0 8 9 15 20 15 11 0 20 -4 20 -10 0 -5
7 -10 16 -10 9 0 29 -11 46 -25 16 -14 37 -25 46 -25 9 0 26 -7 36 -15 11 -8
33 -15 48 -15 16 0 42 -10 58 -21 20 -15 36 -20 54 -15 20 5 32 1 51 -18 13
-13 26 -21 29 -18 3 3 6 0 6 -7 0 -19 138 -151 158 -151 10 0 29 11 42 25 21
22 22 29 13 59 -11 36 -2 66 21 66 17 0 56 43 56 61 0 9 -11 25 -25 37 -21 19
-37 22 -106 22 -63 0 -89 5 -122 22 -23 12 -55 28 -72 36 -16 8 -46 33 -65 54
-32 36 -38 39 -61 29 -24 -8 -28 -7 -34 12 -4 12 -8 27 -9 32 -2 16 -58 55
-69 48 -6 -3 -7 -1 -3 5 9 15 31 15 73 0 30 -11 35 -10 63 17 23 22 33 26 42
17 19 -19 74 -14 125 13 52 27 143 111 143 132 0 7 4 13 10 13 5 0 14 9 19 19
13 24 -9 72 -46 101 -36 28 -136 28 -178 0 -18 -12 -47 -20 -73 -20 -56 0 -80
-14 -97 -54 -12 -29 -18 -32 -45 -28 -19 3 -38 -1 -48 -10 -9 -8 -39 -25 -67
-38 -27 -12 -62 -28 -77 -35 -25 -13 -29 -12 -38 5 -6 11 -24 27 -41 36 -17 8
-28 11 -25 6 3 -6 -3 -13 -14 -17 -11 -3 -20 -11 -20 -17 0 -7 -11 -1 -25 12
-14 13 -25 20 -25 16 0 -4 -20 4 -44 18 -25 14 -56 26 -70 26 -18 0 -30 9 -41
30 -16 31 -42 50 -72 50 -10 1 -36 9 -58 20 -50 24 -166 27 -210 5z m195 -46
c0 -19 5 -21 55 -17 l55 3 0 -42 c0 -36 -2 -41 -20 -36 -15 4 -20 0 -20 -15 0
-22 21 -30 58 -24 13 3 22 12 22 23 0 15 7 19 40 19 33 0 40 -3 40 -20 0 -13
-7 -20 -20 -20 -13 0 -20 -7 -20 -20 0 -16 7 -20 35 -20 28 0 35 4 35 20 0 13
7 20 20 20 18 0 20 -7 20 -60 0 -53 2 -60 20 -60 13 0 20 7 20 20 0 13 7 20
20 20 17 0 20 7 20 40 0 33 3 40 20 40 17 0 20 -7 20 -40 0 -33 -3 -40 -20
-40 -17 0 -20 -7 -20 -40 0 -33 -3 -40 -20 -40 -16 0 -20 -7 -20 -35 0 -34 -1
-35 -40 -35 l-41 0 5 -60 c4 -59 4 -60 -21 -60 -20 0 -24 4 -20 20 4 17 0 20
-34 20 -39 0 -39 0 -39 -40 0 -33 -3 -40 -20 -40 -13 0 -20 7 -20 20 0 13 -7
20 -20 20 -14 0 -20 -7 -20 -21 0 -15 -5 -19 -15 -15 -10 4 -15 -1 -15 -14 0
-14 -7 -20 -24 -20 -19 0 -23 -4 -19 -20 4 -15 0 -20 -16 -20 -14 0 -21 -6
-21 -20 0 -13 -7 -20 -20 -20 -13 0 -20 -7 -20 -20 0 -13 -7 -20 -20 -20 -18
0 -20 7 -20 60 l0 60 -40 0 c-39 0 -40 1 -40 35 l0 35 135 0 135 0 0 40 c0 33
3 40 20 40 13 0 20 -7 20 -20 0 -13 7 -20 20 -20 13 0 20 7 20 20 0 13 7 20
20 20 13 0 20 7 20 20 0 16 7 20 35 20 29 0 35 4 35 21 0 16 5 20 20 16 17 -4
20 0 20 34 0 38 -1 39 -35 39 -19 0 -35 -5 -35 -11 0 -6 7 -9 15 -5 9 3 15 0
15 -8 0 -8 -14 -13 -35 -14 -30 -1 -35 2 -35 22 0 16 5 23 17 22 10 0 19 7 21
17 3 14 -4 17 -37 17 -34 0 -41 -3 -41 -20 0 -13 -7 -20 -20 -20 -17 0 -20 7
-21 53 0 28 -3 46 -6 40 -8 -21 -33 -15 -33 7 0 13 -7 20 -19 20 -16 0 -18 -5
-14 -40 5 -38 4 -40 -20 -40 -20 0 -24 4 -20 20 5 18 0 20 -36 20 -34 0 -41 3
-41 20 0 13 -7 20 -20 20 -14 0 -20 7 -20 21 0 19 -4 21 -40 16 -35 -4 -40 -2
-40 14 0 10 -6 19 -14 19 -7 0 -16 9 -19 20 -4 15 0 20 14 20 12 0 19 7 19 20
0 19 7 20 100 20 95 0 100 -1 100 -21z m1060 -38 c0 -56 -1 -59 -22 -53 -18 4
-20 2 -16 -16 5 -17 2 -22 -13 -22 -12 0 -19 -7 -19 -20 0 -17 -7 -20 -40 -20
-33 0 -40 -3 -40 -20 0 -17 -7 -20 -41 -20 -36 0 -41 2 -36 20 4 17 0 20 -34
20 -39 0 -39 0 -39 -40 0 -33 -3 -40 -20 -40 -13 0 -20 7 -20 20 0 18 -7 20
-77 20 l-78 0 0 40 c-1 35 2 40 22 40 16 0 23 -6 23 -20 0 -17 7 -20 40 -20
22 0 40 2 40 4 0 18 -15 36 -31 36 -12 0 -19 7 -19 20 0 15 7 20 25 20 18 0
25 -5 25 -20 0 -18 7 -20 55 -20 48 0 55 2 55 20 0 13 -7 20 -20 20 -16 0 -20
7 -20 35 l0 35 59 0 c54 0 59 -2 54 -20 -4 -15 0 -20 16 -20 18 0 21 6 21 40
l0 40 75 0 75 0 0 -59z m-530 -151 c0 -13 -7 -20 -20 -20 -18 0 -20 -7 -20
-55 l0 -55 41 0 41 0 -4 38 c-2 31 0 37 17 37 16 0 21 -8 23 -37 3 -33 0 -38
-17 -38 -14 0 -21 -6 -21 -20 0 -17 7 -20 39 -20 34 0 38 3 34 20 -4 16 0 20
19 20 23 0 25 -3 25 -60 0 -55 -2 -60 -23 -60 -17 0 -21 -4 -17 -20 4 -16 0
-20 -21 -20 -25 0 -26 2 -20 40 l7 40 -42 0 c-34 0 -41 -3 -41 -20 0 -13 -7
-20 -20 -20 -13 0 -20 7 -20 20 0 13 7 20 20 20 13 0 20 7 20 20 0 13 -7 20
-20 20 -13 0 -20 7 -20 20 0 11 -7 20 -15 20 -8 0 -15 -9 -15 -20 0 -13 -7
-20 -20 -20 -17 0 -20 -7 -20 -40 0 -35 -3 -40 -23 -40 -20 0 -22 4 -19 40 3
32 8 40 24 40 17 0 19 6 16 37 -2 32 0 38 17 38 17 0 20 6 18 38 -2 31 1 37
17 37 13 0 20 7 20 20 0 13 7 20 20 20 13 0 20 -7 20 -20z m270 -250 c0 -40 0
-40 40 -40 31 0 38 -3 34 -15 -5 -12 3 -15 35 -15 34 0 41 -3 41 -20 0 -19 7
-20 115 -20 108 0 115 -1 115 -20 0 -17 -7 -20 -40 -20 -33 0 -40 -3 -40 -20
0 -13 -7 -20 -20 -20 -13 0 -20 -7 -20 -20 0 -13 7 -20 20 -20 17 0 20 -7 20
-40 0 -33 -3 -40 -20 -40 -13 0 -20 7 -20 20 0 13 -7 20 -20 20 -13 0 -20 7
-20 20 0 11 -7 20 -15 20 -8 0 -15 9 -15 20 0 13 -7 20 -20 20 -13 0 -20 7
-20 20 0 13 -7 20 -20 20 -13 0 -20 7 -20 20 0 13 -7 20 -19 20 -11 0 -21 9
-24 21 -7 24 -33 20 -29 -5 2 -11 -4 -16 -23 -16 -22 0 -25 4 -25 35 0 28 -4
35 -19 35 -13 0 -18 -5 -14 -18 3 -15 -3 -18 -36 -19 -35 -2 -41 1 -41 18 0
12 7 19 20 19 13 0 20 7 20 20 0 13 7 20 20 20 13 0 20 7 20 20 0 13 7 20 20
20 17 0 20 -7 20 -40z"/>
<path d="M1030 960 c0 -13 7 -20 20 -20 13 0 20 7 20 20 0 13 -7 20 -20 20
-13 0 -20 -7 -20 -20z"/>
</g>
</svg>
